<svg width="542" height="542" viewBox="0 0 542 542" fill="none" xmlns="http://www.w3.org/2000/svg">
<mask id="mask0" mask-type="alpha" maskUnits="userSpaceOnUse" x="0" y="0" width="542" height="542">
<path d="M270.889 541.703C420.336 541.703 541.486 420.489 541.486 270.965C541.486 121.44 420.336 0.22644 270.889 0.22644C121.442 0.22644 0.291504 121.44 0.291504 270.965C0.291504 420.489 121.442 541.703 270.889 541.703Z" fill="white"/>
</mask>
<g mask="url(#mask0)">
<path d="M271.974 541.477C421.42 541.477 542.571 420.263 542.571 270.738C542.571 121.214 421.42 0 271.974 0C122.527 0 1.37634 121.214 1.37634 270.738C1.37634 420.263 122.527 541.477 271.974 541.477Z" fill="#0B617C"/>
<path d="M-50.9809 96.3655C-50.9809 96.3655 129.85 78.5866 218.239 152.765C306.628 226.944 417.971 279.654 508.336 272.916C598.702 266.177 580.819 340.176 577.771 344.238C574.723 348.299 562.816 490.477 476.351 518.204C389.892 545.931 307.4 605.873 163.845 567.266C20.2973 528.658 -121.853 478.025 -123.89 381.433C-125.926 284.842 -50.9809 96.3655 -50.9809 96.3655Z" fill="white"/>
<path d="M-51.1738 101.193C-51.1738 101.193 129.451 86.3241 217.846 160.496C306.242 234.668 415.901 279.654 506.267 272.909C596.632 266.17 589.531 313.914 586.483 317.975C583.435 322.037 562.424 498.208 475.958 525.935C389.5 553.662 307.007 613.604 163.453 574.997C19.8981 536.403 -122.252 485.763 -124.282 389.171C-126.312 292.579 -51.1738 101.193 -51.1738 101.193Z" fill="#085770"/>
<path d="M-92.4099 329.588C-92.4099 329.588 85.8786 234.335 174.268 308.507C262.656 382.679 392.907 354.432 483.492 351.895C570.676 349.451 570.424 390.563 567.375 394.624C564.327 398.686 537.759 613.518 451.294 641.251C364.828 668.985 282.343 728.921 138.788 690.313C-4.7664 651.706 -146.917 601.066 -148.947 504.474C-150.976 407.882 -92.4099 329.588 -92.4099 329.588Z" fill="#F6D77D"/>
<path d="M-104.077 345.882C-104.077 345.882 85.9585 238.437 174.354 312.615C262.75 386.794 396.874 360.398 487.246 353.653C577.611 346.914 570.51 394.658 567.462 398.72C564.414 402.781 537.846 617.613 451.38 645.346C364.922 673.073 282.429 733.016 138.875 694.408C-4.67989 655.801 -146.83 605.168 -148.867 508.582C-150.903 411.997 -104.077 345.882 -104.077 345.882Z" fill="#003C50"/>
<path d="M364.542 184.94C396.788 184.94 422.929 158.786 422.929 126.523C422.929 94.26 396.788 68.1057 364.542 68.1057C332.296 68.1057 306.155 94.26 306.155 126.523C306.155 158.786 332.296 184.94 364.542 184.94Z" fill="white"/>
<path d="M415.655 397.548C401.266 414.388 375.716 416.385 358.885 401.989L276.293 331.34C259.462 316.943 257.465 291.38 271.854 274.54C286.243 257.7 311.792 255.703 328.624 270.099L411.222 340.748C428.047 355.151 430.043 380.708 415.655 397.548Z" fill="#0B617C"/>
<path d="M332.444 293.391L332.184 308.733C331.878 326.665 316.964 341.088 299.034 340.782L240.261 339.776C222.339 339.47 207.923 324.548 208.229 306.609L208.489 291.267C208.795 273.335 220.422 251.201 238.345 251.508L300.412 260.224C318.341 260.53 332.75 275.453 332.444 293.391Z" fill="#0B617C"/>
<path d="M94.0446 555.54C93.2659 549.567 84.6806 351.489 78.611 302.054C77.1668 290.275 85.5125 268.614 97.1726 266.463L174.354 255.723L252.8 252.746C252.8 252.746 301.403 274.813 316.191 318.542C329.156 356.863 359.863 552.384 359.863 552.384L94.0446 555.54Z" fill="#0B617C"/>
<path d="M187.012 292.746L263.315 406.197L288.991 281.612L258.796 259.805L193.634 270.738L187.012 292.746Z" fill="#003144"/>
<path d="M250.311 234.701L301.643 248.491C289.91 264.293 283.095 314.933 281.684 319.014C280.992 321.012 282.669 277.038 282.669 277.038L246.704 250.369L250.311 234.701Z" fill="#003C50"/>
<path d="M81.0069 286.46L32.6429 436.648C29.5882 446.609 33.7344 457.363 42.6725 462.697L91.2694 471.746L174.347 471.293L100.727 421.572C100.727 421.572 118.609 380.042 119.441 376.806C120.273 373.57 81.0069 286.46 81.0069 286.46Z" fill="#003C50"/>
<path d="M235.882 240.048L221.367 245.122C188.19 245.122 161.05 217.968 161.05 184.774V137.297C161.05 111.175 182.414 89.8066 208.516 89.8066H233.839C260.154 89.8066 281.684 111.348 281.684 137.676V184.78C281.684 217.968 269.052 240.048 235.882 240.048Z" fill="white"/>
<path d="M228.315 282.005H215.55C198.719 282.005 185.069 268.354 185.069 251.508V199.53H258.79V251.508C258.796 268.354 245.146 282.005 228.315 282.005Z" fill="white"/>
<path d="M215.011 136.484C215.011 148.317 205.847 157.832 198.992 167.468C183.618 189.062 171.645 151.653 172.198 136.484C172.624 124.665 181.781 115.063 193.608 115.063C205.428 115.063 215.011 124.652 215.011 136.484Z" fill="#085770"/>
<path d="M193.601 117.58L182.786 171.143L185.022 232.857C185.022 232.857 162.74 217.009 160.338 191.692C158.747 174.919 161.043 134.24 161.043 134.24C161.043 128.554 161.316 121.582 164.165 116.655C164.165 116.655 171.585 102.285 179.825 101.213C185.901 100.434 193.601 117.58 193.601 117.58Z" fill="#003144"/>
<path d="M183.731 191.699C191.531 191.699 197.854 185.373 197.854 177.569C197.854 169.765 191.531 163.439 183.731 163.439C175.932 163.439 169.609 169.765 169.609 177.569C169.609 185.373 175.932 191.699 183.731 191.699Z" fill="white"/>
<path d="M235.902 214.066C240.374 219.879 247.935 219.599 252.168 217.961" stroke="#003C50" stroke-width="5.0858" stroke-miterlimit="10" stroke-linecap="round"/>
<path d="M215.637 166.269L215.71 165.77C216.103 163 218.685 161.055 221.453 161.448L238.464 163.859C241.233 164.251 243.176 166.835 242.784 169.605L242.71 170.105C242.318 172.875 239.736 174.819 236.967 174.426L219.956 172.016C217.187 171.623 215.244 169.039 215.637 166.269Z" fill="#085770"/>
<path d="M258.796 169.519C258.444 166.829 260.347 164.345 263.036 163.985L275.415 162.347C278.103 161.994 280.586 163.899 280.945 166.589C281.298 169.279 279.394 171.763 276.706 172.122L264.327 173.76C261.638 174.113 259.149 172.202 258.796 169.519Z" fill="#085770"/>
<path d="M385.773 156.281C383.184 174.573 308.964 179.187 219.996 166.589C131.028 153.99 68.2553 129.746 70.8376 111.461C73.4265 93.1693 140.392 87.7624 229.36 100.361C318.328 112.959 388.361 137.996 385.773 156.281Z" fill="#003C50"/>
<path d="M287.753 126.037C287.76 125.87 287.753 125.704 287.727 125.538L284.925 72.9733L179.552 51.6121L165.609 110.222H165.629C164.837 116.841 191.438 125.784 225.114 130.205C258.836 134.633 286.875 132.862 287.74 126.237C287.747 126.177 287.747 126.117 287.753 126.057H287.76L287.753 126.037Z" fill="#003144"/>
<path d="M168.011 95.8928L163.206 111.101C163.206 111.101 170.208 128.108 220.309 132.643C270.403 137.177 284.299 136.158 287.76 130.066C291.221 123.973 289.025 112.626 289.025 112.626C289.025 112.626 270.283 119.232 225.56 113.472C185.581 108.331 168.011 95.8928 168.011 95.8928Z" fill="#F6D77D"/>
<path d="M284.941 72.9721C286.434 65.6013 264.056 54.8438 234.959 48.9447C205.862 43.0456 181.064 44.2387 179.571 51.6096C178.078 58.9805 200.456 69.738 229.553 75.6371C258.65 81.5362 283.448 80.343 284.941 72.9721Z" fill="#003C50"/>
<path opacity="0.1" d="M258.756 235.267C258.756 235.267 228.814 242.532 197.854 227.816C223.41 248.784 258.756 242.838 258.756 242.838V235.267Z" fill="#003647"/>
<path d="M297.297 562.012L337.322 287.405H458.022L493.668 519.31L297.297 562.012Z" fill="#F6D77D"/>
<path d="M473.596 286.573C466.774 298.186 454.522 303.646 446.222 298.765C437.923 293.884 436.725 280.52 443.547 268.907C444.259 267.695 445.124 266.603 446.096 265.618C458.309 253.266 479.559 265.085 475.439 281.958C475.047 283.563 474.448 285.121 473.596 286.573Z" fill="#F6D77D"/>
<path d="M357.135 272.709C360.516 285.747 355.711 298.272 346.393 300.696C337.076 303.12 326.787 294.51 323.399 281.472C323.046 280.107 322.88 278.729 322.873 277.344C322.78 259.971 346.154 253.292 355.172 268.141C356.03 269.56 356.709 271.078 357.135 272.709Z" fill="#F6D77D"/>
<path d="M350.213 278.616C351.797 284.708 349.548 290.568 345.195 291.7C340.843 292.832 336.031 288.81 334.447 282.717C334.281 282.078 334.207 281.432 334.201 280.786C334.161 272.663 345.082 269.54 349.301 276.485C349.701 277.144 350.014 277.857 350.213 278.616Z" fill="white"/>
<path d="M465.044 285.101C461.856 290.528 456.126 293.079 452.245 290.801C448.365 288.524 447.806 282.271 450.994 276.844C451.327 276.278 451.733 275.766 452.186 275.306C457.896 269.533 467.832 275.053 465.902 282.944C465.723 283.69 465.443 284.422 465.044 285.101Z" fill="white"/>
<path d="M378.705 345.882C381.906 345.882 384.501 341.139 384.501 335.288C384.501 329.437 381.906 324.694 378.705 324.694C375.503 324.694 372.908 329.437 372.908 335.288C372.908 341.139 375.503 345.882 378.705 345.882Z" fill="#003C50"/>
<path d="M400.481 404.14C413.676 404.14 424.373 393.437 424.373 380.235C424.373 367.033 413.676 356.33 400.481 356.33C387.285 356.33 376.588 367.033 376.588 380.235C376.588 393.437 387.285 404.14 400.481 404.14Z" fill="white"/>
<path d="M231.396 181.571C233.719 181.571 235.603 179.687 235.603 177.363C235.603 175.038 233.719 173.154 231.396 173.154C229.073 173.154 227.19 175.038 227.19 177.363C227.19 179.687 229.073 181.571 231.396 181.571Z" fill="#003C50"/>
<path d="M266.942 181.198C269.265 181.198 271.148 179.314 271.148 176.99C271.148 174.665 269.265 172.781 266.942 172.781C264.619 172.781 262.736 174.665 262.736 176.99C262.736 179.314 264.619 181.198 266.942 181.198Z" fill="#003C50"/>
<path d="M419.861 345.882C423.062 345.882 425.658 341.139 425.658 335.288C425.658 329.437 423.062 324.694 419.861 324.694C416.659 324.694 414.064 329.437 414.064 335.288C414.064 341.139 416.659 345.882 419.861 345.882Z" fill="#003C50"/>
<path opacity="0.1" d="M251.881 175.491L260.028 202.672L250.271 201.774L251.881 175.491Z" fill="#003647"/>
<path d="M453.876 390.176C453.077 386.061 455.786 382.046 459.899 381.247L479.785 377.378C483.898 376.579 487.911 379.289 488.71 383.404C489.509 387.52 486.8 391.535 482.687 392.334L462.801 396.203C458.695 397.002 454.675 394.291 453.876 390.176Z" fill="#003144"/>
<path d="M492.876 436.601L491.272 436.914C486.62 437.82 482.075 434.75 481.169 430.096L472.87 387.38C471.965 382.725 475.033 378.177 479.685 377.272L481.289 376.959C490.107 375.241 498.726 381.061 500.443 389.883L505.794 417.437C507.511 426.26 501.694 434.883 492.876 436.601Z" fill="#003144"/>
<path d="M456.997 405.025C456.199 400.91 458.907 396.895 463.02 396.096L482.906 392.227C487.019 391.428 491.033 394.138 491.831 398.254C492.63 402.369 489.921 406.384 485.808 407.183L465.922 411.052C461.816 411.851 457.796 409.134 456.997 405.025Z" fill="#003144"/>
<path d="M460.651 419.861C459.853 415.746 462.561 411.731 466.674 410.932L486.56 407.063C490.673 406.264 494.686 408.974 495.485 413.089C496.284 417.204 493.575 421.22 489.462 422.019L469.576 425.887C465.47 426.686 461.45 423.976 460.651 419.861Z" fill="#003144"/>
<path d="M463.966 434.55C463.167 430.435 465.876 426.42 469.989 425.621L489.875 421.752C493.988 420.953 498.001 423.663 498.799 427.778C499.598 431.894 496.889 435.909 492.776 436.708L472.89 440.577C468.777 441.376 464.764 438.665 463.966 434.55Z" fill="#003144"/>
<path d="M183.731 234.701L193.594 272.649L190.214 287.405L208.948 325.367L149.177 266.663L183.731 234.701Z" fill="#003C50"/>
<path d="M386.897 369.068H414.064L400.481 382.659L386.897 369.068Z" fill="#003C50"/>
<path d="M400.481 375.867V393.885" stroke="#003C50" stroke-width="3.0515" stroke-miterlimit="10"/>
<path d="M390.91 397.361L400.481 393.885" stroke="#003C50" stroke-width="3.0515" stroke-miterlimit="10"/>
<path d="M400.268 393.885L410.191 397.614" stroke="#003C50" stroke-width="3.0515" stroke-miterlimit="10"/>
<path opacity="0.27" d="M262.809 404.846C273.099 428.138 273.631 570.635 271.974 599.268C270.683 532.441 268.726 423.47 262.809 404.846Z" fill="#003647"/>
<path d="M325.07 440.297C327.519 442.461 329.975 444.612 332.397 446.796C334.833 448.967 337.255 451.157 339.671 453.348H338.72C343.285 448.687 347.917 444.086 352.516 439.464L353.288 438.692L354.12 439.464L361.288 446.123L368.449 452.795H366.432L373.427 445.957C375.763 443.679 378.079 441.382 380.435 439.125L381.56 438.046L382.691 439.125L396.86 452.622H394.517L408.687 439.118L409.818 438.04L410.943 439.118C413.299 441.376 415.621 443.666 417.951 445.943L424.945 452.789H422.929C425.298 450.545 427.701 448.334 430.09 446.117L437.264 439.458L438.103 438.679L438.875 439.458C443.48 444.086 448.113 448.68 452.678 453.341H451.72C454.136 451.151 456.558 448.96 458.994 446.789C461.423 444.605 463.879 442.454 466.321 440.297C464.059 442.654 461.809 445.018 459.526 447.348C457.257 449.692 454.967 452.023 452.671 454.34L452.219 454.793L451.713 454.34C446.861 449.972 442.076 445.537 437.258 441.136H438.868L431.914 448.021C429.591 450.312 427.282 452.622 424.945 454.893L423.954 455.858L422.929 454.893L415.801 448.187C413.425 445.95 411.043 443.726 408.687 441.469H410.943L396.86 455.059L395.689 456.191L394.517 455.059L380.435 441.475H382.691C380.335 443.733 377.946 445.95 375.577 448.194L368.449 454.899L367.417 455.872L366.432 454.899L359.464 448.021L352.509 441.136H354.113C349.301 445.537 344.516 449.972 339.665 454.34L339.165 454.793L338.72 454.34C336.424 452.016 334.141 449.692 331.871 447.348C329.582 445.018 327.332 442.654 325.07 440.297Z" fill="white"/>
<path d="M325.07 471.7C327.519 473.864 329.975 476.014 332.397 478.199C334.833 480.369 337.255 482.56 339.671 484.751H338.72C343.285 480.09 347.917 475.488 352.516 470.867L353.288 470.095L354.12 470.867L361.288 477.526L368.449 484.198H366.432L373.427 477.36C375.763 475.082 378.079 472.785 380.435 470.528L381.56 469.449L382.691 470.528L396.86 484.025H394.517L408.687 470.521L409.818 469.442L410.943 470.521C413.299 472.778 415.621 475.069 417.951 477.346L424.945 484.191H422.929C425.298 481.947 427.701 479.737 430.09 477.519L437.264 470.861L438.103 470.082L438.875 470.861C443.48 475.488 448.113 480.083 452.678 484.744H451.72C454.136 482.553 456.558 480.363 458.994 478.192C461.423 476.008 463.879 473.857 466.321 471.7C464.059 474.057 461.809 476.421 459.526 478.751C457.257 481.095 454.967 483.426 452.671 485.743L452.219 486.196L451.713 485.743C446.861 481.375 442.076 476.94 437.258 472.539H438.868L431.92 479.43C429.598 481.721 427.288 484.032 424.952 486.302L423.96 487.268L422.936 486.302L415.808 479.597C413.432 477.36 411.049 475.135 408.693 472.878H410.949L396.867 486.469L395.695 487.601L394.524 486.469L380.442 472.878H382.698C380.342 475.135 377.952 477.353 375.583 479.597L368.455 486.302L367.424 487.274L366.439 486.302L359.464 479.424L352.509 472.539H354.113C349.301 476.94 344.516 481.375 339.665 485.743L339.159 486.196L338.713 485.743C336.417 483.419 334.134 481.095 331.865 478.751C329.582 476.421 327.332 474.057 325.07 471.7Z" fill="white"/>
<path d="M57.7 470.98C36.423 464.834 24.0376 442.394 30.1804 421.106L66.4783 295.276C72.6212 273.988 95.0495 261.596 116.326 267.742C137.603 273.888 149.989 296.328 143.846 317.616L107.548 443.446C101.412 464.734 78.977 477.126 57.7 470.98Z" fill="#085770"/>
<path opacity="0.27" d="M101.825 273.527C101.825 273.527 111.822 286.963 96.7407 339.247C81.6532 391.532 61.0085 449.243 61.0085 449.243L111.143 460.344C111.143 460.344 154.183 327.641 142.203 299.661C130.223 271.681 114.288 281.952 101.825 273.527Z" fill="#003647"/>
<path opacity="0.27" d="M96.3939 402.728C85.7654 397.481 65.6265 392.567 42.9453 411.871C42.9453 411.871 66.6182 395.89 96.3939 402.728Z" fill="#003647"/>
<path d="M57.7399 470.434C36.463 464.288 24.0775 441.848 30.2203 420.56L66.5182 294.73C72.6611 273.442 95.0894 261.05 116.366 267.196C137.643 273.342 150.029 295.782 143.886 317.07L107.588 442.9C101.452 464.188 79.0169 476.58 57.7399 470.434Z" fill="#0B617C"/>
<path d="M205.78 488.966C199.637 510.254 183.019 510.573 161.742 504.434L57.7466 470.441C36.4697 464.295 24.0842 441.855 30.227 420.567L29.8211 424.409C35.9639 403.121 60.4021 388.665 99.4753 403.541L172.025 448.341C193.987 464.981 211.916 467.678 205.78 488.966Z" fill="#0B617C"/>
<path d="M220.708 510.34C212.948 529.531 202.772 522.912 183.565 515.474L74.1852 475.808C64.3087 471.746 55.6502 452.549 63.4102 433.359C71.1703 414.168 97.5319 408.548 116.712 416.312L198.659 462.451C217.84 470.215 228.468 491.157 220.708 510.34Z" fill="white"/>
<path opacity="0.1" d="M56.6685 443.34L177.449 501.631L175.592 527.18L64.2089 477.746L47.3245 441.509L56.6685 443.34Z" fill="#003647"/>
<path d="M237.899 511.126L237.686 511.113C233.16 510.787 229.753 506.851 230.079 502.323L230.937 490.331C231.263 485.803 235.197 482.394 239.722 482.72L239.935 482.733C244.461 483.059 247.868 486.995 247.542 491.523L246.684 503.515C246.357 508.043 242.424 511.452 237.899 511.126Z" fill="#003144"/>
<path d="M245.932 496.71L245.519 497.276C242.517 501.418 236.674 502.357 232.534 499.353L210.985 483.732C206.845 480.729 205.907 474.883 208.908 470.741L209.321 470.175C212.322 466.033 218.166 465.094 222.305 468.097L243.855 483.719C248.001 486.715 248.933 492.568 245.932 496.71Z" fill="#003144"/>
<path d="M197.514 544.753C192.975 547.503 187.012 546.038 184.264 541.497L168.99 516.267C166.241 511.725 167.705 505.759 172.244 503.009C176.783 500.259 182.746 501.724 185.495 506.265L200.769 531.495C203.511 536.036 202.053 542.003 197.514 544.753Z" fill="#003144"/>
<path d="M213.58 538.513C209.041 541.263 203.078 539.799 200.33 535.257L185.056 510.027C182.307 505.486 183.771 499.52 188.31 496.77C192.849 494.02 198.812 495.485 201.561 500.026L216.835 525.256C219.583 529.797 218.119 535.763 213.58 538.513Z" fill="#003144"/>
<path d="M226.964 530.976C222.425 533.726 216.462 532.261 213.713 527.72L198.439 502.49C195.691 497.948 197.155 491.982 201.694 489.232C206.233 486.482 212.196 487.947 214.944 492.488L230.218 517.718C232.967 522.26 231.503 528.226 226.964 530.976Z" fill="#003144"/>
<path d="M241.472 523.345C236.934 526.095 230.97 524.63 228.222 520.089L212.948 494.859C210.199 490.317 211.663 484.351 216.202 481.601C220.741 478.851 226.704 480.316 229.453 484.857L244.727 510.087C247.476 514.629 246.011 520.595 241.472 523.345Z" fill="#003144"/>
<path opacity="0.27" d="M106.084 411.458C106.084 411.458 64.3221 393.506 49.96 432.506C39.7907 460.127 54.1994 469.236 54.1994 469.236C54.1994 469.236 34.3733 455.406 45.867 429.117C64.4885 386.521 106.084 411.458 106.084 411.458Z" fill="#003647"/>
<path opacity="0.27" d="M87.0166 402.901C76.3881 397.654 59.6633 392.154 36.9888 411.458C36.9888 411.458 57.2408 396.056 87.0166 402.901Z" fill="#003647"/>
<path d="M155.599 486.715C153.709 504.927 163.685 515.781 181.309 517.612C198.925 519.443 214.172 507.99 216.063 489.778C217.953 471.566 208.549 458.881 190.926 457.05C173.302 455.226 157.489 468.503 155.599 486.715Z" fill="#003C50"/>
<path d="M165.456 495.891C163.339 516.313 174.933 528.525 195.338 530.643C215.743 532.76 233.36 519.976 235.476 499.553C237.593 479.131 226.658 464.874 206.246 462.75C185.834 460.626 167.579 475.475 165.456 495.891Z" fill="#003144"/>
<path d="M148.292 259.585C148.292 259.585 94.9762 262.848 78.4445 273.322C64.8012 281.965 37.9537 393.506 37.9537 393.506C37.9537 393.506 68.2153 283.603 79.3297 275.606C95.1027 264.246 148.292 259.585 148.292 259.585Z" fill="white"/>
<path d="M244.294 509.375C244.294 509.375 231.223 489.512 228.075 484.391C224.927 479.271 244.627 506.678 244.627 506.678L244.72 510.081" fill="#0B617C"/>
<path d="M300.505 539.992L335.405 300.55L297.297 541.477L300.505 539.992Z" fill="white"/>
</g>
</svg>
