<svg width="204" height="216" viewBox="0 0 204 216" fill="none" xmlns="http://www.w3.org/2000/svg">
<g clip-path="url(#clip0)">
<path d="M37.28 52.8999C47.9059 52.8999 56.52 44.2859 56.52 33.6599C56.52 23.034 47.9059 14.4199 37.28 14.4199C26.654 14.4199 18.04 23.034 18.04 33.6599C18.04 44.2859 26.654 52.8999 37.28 52.8999Z" fill="#F6D77D"/>
<path d="M49.7 29.8399C50.07 31.0499 50.27 32.3299 50.27 33.6499C50.27 40.8299 44.45 46.6399 37.28 46.6399C30.11 46.6399 24.29 40.8199 24.29 33.6499C24.29 26.4799 30.11 20.6599 37.28 20.6599C39.7 20.6599 41.97 21.3199 43.91 22.4799" stroke="white" stroke-width="3" stroke-miterlimit="10" stroke-linecap="round" stroke-linejoin="round"/>
<path d="M183.78 114.15C194.406 114.15 203.02 105.536 203.02 94.91C203.02 84.2841 194.406 75.67 183.78 75.67C173.154 75.67 164.54 84.2841 164.54 94.91C164.54 105.536 173.154 114.15 183.78 114.15Z" fill="#085770"/>
<path d="M179.01 82.82C180.18 82.36 181.45 82.06 182.77 81.96C189.92 81.4 196.17 86.75 196.73 93.91C197.29 101.07 191.94 107.31 184.78 107.87C177.63 108.43 171.38 103.08 170.82 95.92C170.63 93.5 171.12 91.19 172.12 89.16" stroke="white" stroke-width="3" stroke-miterlimit="10" stroke-linecap="round" stroke-linejoin="round"/>
<path d="M16.18 111.09C25.116 111.09 32.36 103.846 32.36 94.91C32.36 85.974 25.116 78.73 16.18 78.73C7.24403 78.73 0 85.974 0 94.91C0 103.846 7.24403 111.09 16.18 111.09Z" fill="#085770"/>
<path d="M19.3 104.19C18.4 104.49 17.44 104.67 16.44 104.69C11.04 104.83 6.54002 100.56 6.41002 95.15C6.27002 89.75 10.54 85.25 15.95 85.12C21.35 84.98 25.85 89.25 25.98 94.66C26.03 96.49 25.57 98.21 24.74 99.69" stroke="white" stroke-width="3" stroke-miterlimit="10" stroke-linecap="round" stroke-linejoin="round"/>
<path d="M159.4 56.4499C168.115 56.4499 175.18 49.3849 175.18 40.6699C175.18 31.9548 168.115 24.8899 159.4 24.8899C150.685 24.8899 143.62 31.9548 143.62 40.6699C143.62 49.3849 150.685 56.4499 159.4 56.4499Z" fill="#F6D77D"/>
<path d="M159.86 30.8899C160.81 30.9299 161.77 31.1199 162.71 31.4599C167.8 33.2899 170.44 38.8899 168.61 43.9799C166.78 49.0699 161.18 51.7099 156.09 49.8799C151 48.0499 148.36 42.4499 150.19 37.3599C150.81 35.6399 151.86 34.1999 153.17 33.1199" stroke="white" stroke-width="3" stroke-miterlimit="10" stroke-linecap="round" stroke-linejoin="round"/>
<path d="M105.87 24.88C112.74 24.88 118.31 19.3104 118.31 12.44C118.31 5.56958 112.74 0 105.87 0C98.9996 0 93.43 5.56958 93.43 12.44C93.43 19.3104 98.9996 24.88 105.87 24.88Z" fill="#085770"/>
<path d="M98.37 13.2401C98.29 12.5101 98.32 11.7601 98.47 11.0001C99.26 6.91008 103.22 4.24008 107.31 5.03008C111.4 5.82008 114.07 9.78008 113.28 13.8701C112.49 17.9601 108.53 20.6301 104.44 19.8401C103.06 19.5701 101.84 18.9401 100.86 18.0701" stroke="white" stroke-width="3" stroke-miterlimit="10" stroke-linecap="round" stroke-linejoin="round"/>
<path d="M141.11 99.5801L133.99 102.35C131.35 103.38 128.35 102.06 127.32 99.42C126.29 96.78 127.61 93.78 130.25 92.75L137.37 89.9801C140.01 88.9501 143.01 90.2701 144.04 92.9101C145.06 95.5501 143.74 98.5501 141.11 99.5801Z" fill="#F6D77D"/>
<path d="M36.21 159.06C32.57 169.36 26.17 183.5 22.29 194.08C20.53 198.87 25.18 205.65 32.29 209.84C38.9 213.73 50.8 217.28 58.08 214.89C66.52 212.13 69.98 187.03 75.47 184.9C83.43 181.8 97.89 170.46 103.9 163.98C109.91 157.5 113.99 147.73 109.99 139.84C107.89 135.7 96.17 114.11 92.02 112.02C63.22 97.54 46.22 130.75 36.21 159.06Z" fill="#F6D77D"/>
<path d="M69.5 63.4301L81.85 173.82L140.66 167.74L131.43 57.3501L69.5 63.4301Z" fill="#003C50"/>
<path d="M85.08 162.06L135.21 157.34L127.48 65.26L74.4 70.03L85.08 162.06Z" fill="white"/>
<path d="M86.41 135.27C87.36 135.2 88.15 136 88.1 136.95C87.7 143.92 81.2 149.46 74.84 152.93C68.87 156.19 71.82 155 67.54 160.48C63.43 165.74 64.62 174.98 59.64 179.3C51.99 185.94 37.98 183.94 36.65 172.78C34.15 151.86 70.17 136.4 86.41 135.27Z" fill="#F6D77D"/>
<path d="M116.47 80.61C106.91 94.12 101.95 101.12 92.38 114.62" stroke="#003C50" stroke-width="4.3305" stroke-miterlimit="10" stroke-linecap="round" stroke-linejoin="round"/>
<path d="M92.7 94.63C96.323 94.63 99.26 91.693 99.26 88.07C99.26 84.447 96.323 81.51 92.7 81.51C89.077 81.51 86.14 84.447 86.14 88.07C86.14 91.693 89.077 94.63 92.7 94.63Z" stroke="#003C50" stroke-width="4.3305" stroke-miterlimit="10" stroke-linecap="round" stroke-linejoin="round"/>
<path d="M115.92 113.65C119.543 113.65 122.48 110.713 122.48 107.09C122.48 103.467 119.543 100.53 115.92 100.53C112.297 100.53 109.36 103.467 109.36 107.09C109.36 110.713 112.297 113.65 115.92 113.65Z" stroke="#003C50" stroke-width="4.3305" stroke-miterlimit="10" stroke-linecap="round" stroke-linejoin="round"/>
<path d="M144.91 132.64L139.68 135.41C137.68 136.47 135.17 135.7 134.11 133.69L134.04 133.55C132.98 131.55 133.75 129.04 135.76 127.98L140.99 125.21C142.99 124.15 145.5 124.92 146.56 126.93L146.63 127.07C147.69 129.07 146.92 131.58 144.91 132.64Z" fill="#F6D77D"/>
<path d="M142.74 122.81L137.35 125.66C135.31 126.74 132.75 125.95 131.67 123.91L131.61 123.8C130.53 121.76 131.32 119.2 133.36 118.12L138.75 115.27C140.79 114.19 143.35 114.98 144.43 117.02L144.49 117.13C145.57 119.18 144.78 121.73 142.74 122.81Z" fill="#F6D77D"/>
<path d="M139.38 113.34L133.52 116.44C131.5 117.51 128.98 116.73 127.91 114.71L127.86 114.62C126.79 112.6 127.57 110.08 129.59 109.01L135.45 105.91C137.47 104.84 139.99 105.62 141.06 107.64L141.11 107.73C142.18 109.75 141.4 112.27 139.38 113.34Z" fill="#F6D77D"/>
<path d="M98.75 135.36L73.57 145.17C70.24 146.47 66.45 144.8 65.15 141.47C63.85 138.14 65.52 134.35 68.85 133.05L94.03 123.24C97.36 121.94 101.15 123.61 102.45 126.94C103.74 130.27 102.08 134.06 98.75 135.36Z" fill="#F6D77D"/>
</g>
<defs>
<clipPath id="clip0">
<rect width="203.02" height="215.66" fill="white"/>
</clipPath>
</defs>
</svg>
