<svg width="237" height="182" viewBox="0 0 237 182" fill="none" xmlns="http://www.w3.org/2000/svg">
<g clip-path="url(#clip0)">
<path d="M223.627 143.68C231.008 143.68 236.992 137.689 236.992 130.297C236.992 122.906 231.008 116.915 223.627 116.915C216.246 116.915 210.262 122.906 210.262 130.297C210.262 137.689 216.246 143.68 223.627 143.68Z" fill="#F6D77D"/>
<path d="M106.215 156.485C105.21 156.849 104.222 157.206 103.233 157.554" stroke="#085770" stroke-width="2.8822" stroke-miterlimit="10" stroke-linecap="round"/>
<path d="M94.2101 160.476C17.9358 183.148 4.12809 133.037 14.0608 108.069C27.7498 73.6536 94.0361 83.0613 102.047 108.069C113.095 142.556 116.487 142.208 143.945 154.521C168.531 165.552 190.231 159.985 205.905 150.823" stroke="#085770" stroke-width="2.8822" stroke-miterlimit="10" stroke-linecap="round" stroke-dasharray="8 8"/>
<path d="M209.93 148.305C210.824 147.711 211.686 147.109 212.532 146.507" stroke="#085770" stroke-width="2.8822" stroke-miterlimit="10" stroke-linecap="round"/>
<path d="M228.475 136.934L218.787 123.654" stroke="white" stroke-width="2.5799" stroke-miterlimit="10" stroke-linecap="round"/>
<path d="M230.215 125.388L217.04 135.207" stroke="white" stroke-width="2.5799" stroke-miterlimit="10" stroke-linecap="round"/>
<path d="M229.717 110.746C229.717 110.746 234.027 56.2637 181.208 48.7724C139.864 42.9125 123.628 64.7924 120.908 68.8785" stroke="#085770" stroke-width="2.8822" stroke-miterlimit="10" stroke-linecap="round" stroke-dasharray="8 8"/>
<path d="M110.216 0.997803L111.379 21.6424" stroke="#085770" stroke-width="2.5137" stroke-miterlimit="10" stroke-linecap="round"/>
<path d="M140.597 67.5856L88.1389 70.5372L94.393 181.991L146.851 179.04L140.597 67.5856Z" fill="#F6D77D"/>
<path d="M125.429 36.3613L99.7052 37.8087L100.28 48.0473L126.003 46.5999L125.429 36.3613Z" fill="#F6D77D"/>
<path d="M151.292 75.7073L78.4169 79.8077L82.5117 152.782L155.387 148.682L151.292 75.7073Z" fill="#F6D77D"/>
<path d="M141.678 86.8263L89.41 89.7672L92.347 142.106L144.615 139.165L141.678 86.8263Z" fill="#085770"/>
<path d="M140.504 67.5958L88.2394 70.5337L100.252 48.044L126.056 46.5948L140.504 67.5958Z" fill="#003C50"/>
<path d="M125.432 36.4111L99.303 37.884L110.414 5.23438L125.432 36.4111Z" fill="#003C50"/>
<path d="M116.906 132.681C127.074 132.681 135.317 124.427 135.317 114.246C135.317 104.065 127.074 95.8108 116.906 95.8108C106.739 95.8108 98.4962 104.065 98.4962 114.246C98.4962 124.427 106.739 132.681 116.906 132.681Z" fill="white"/>
<path d="M116.282 104.514L116.511 115.347L129.322 115.394" stroke="#085770" stroke-width="3.3516" stroke-miterlimit="10" stroke-linecap="square"/>
<path d="M88.5715 77.9298L141.034 74.984" stroke="white" stroke-width="3" stroke-miterlimit="10" stroke-linecap="round"/>
<path d="M92.8103 153.381L145.265 150.435" stroke="white" stroke-width="3" stroke-miterlimit="10" stroke-linecap="round"/>
<path d="M192.248 66.1069C199.764 66.1069 205.858 60.0053 205.858 52.4785C205.858 44.9517 199.764 38.8501 192.248 38.8501C184.731 38.8501 178.638 44.9517 178.638 52.4785C178.638 60.0053 184.731 66.1069 192.248 66.1069Z" fill="#F6D77D"/>
<path d="M14.037 123.218C21.7894 123.218 28.074 116.925 28.074 109.162C28.074 101.399 21.7894 95.106 14.037 95.106C6.28458 95.106 0 101.399 0 109.162C0 116.925 6.28458 123.218 14.037 123.218Z" fill="#F6D77D"/>
<path d="M21.1702 113.24L6.90381 105.092" stroke="white" stroke-width="2.5799" stroke-miterlimit="10" stroke-linecap="round"/>
<path d="M18.0465 101.987L10.0355 116.344" stroke="white" stroke-width="2.5799" stroke-miterlimit="10" stroke-linecap="round"/>
<path d="M198.321 58.0693L186.767 47.4342" stroke="white" stroke-width="2.4651" stroke-miterlimit="10" stroke-linecap="round"/>
<path d="M197.807 46.9274L187.281 58.584" stroke="white" stroke-width="2.4651" stroke-miterlimit="10" stroke-linecap="round"/>
</g>
<defs>
<clipPath id="clip0">
<rect width="237" height="182" fill="white"/>
</clipPath>
</defs>
</svg>
