<svg width="186" height="188" viewBox="0 0 186 188" fill="none" xmlns="http://www.w3.org/2000/svg">
<g clip-path="url(#clip0)">
<path d="M82.5539 52.0837C96.9555 52.0837 108.63 40.4244 108.63 26.0419C108.63 11.6593 96.9555 0 82.5539 0C68.1523 0 56.4775 11.6593 56.4775 26.0419C56.4775 40.4244 68.1523 52.0837 82.5539 52.0837Z" fill="#F6D77D"/>
<path d="M20.3345 91.1922C31.5649 91.1922 40.6689 82.1002 40.6689 70.8847C40.6689 59.6691 31.5649 50.5771 20.3345 50.5771C9.10405 50.5771 0 59.6691 0 70.8847C0 82.1002 9.10405 91.1922 20.3345 91.1922Z" fill="#F6D77D"/>
<path d="M163.572 64.5659C175.959 64.5659 186 54.5377 186 42.1674C186 29.797 175.959 19.7688 163.572 19.7688C151.185 19.7688 141.144 29.797 141.144 42.1674C141.144 54.5377 151.185 64.5659 163.572 64.5659Z" fill="#F6D77D"/>
<path d="M47.3252 121.745H24.4032V188H47.3252V121.745Z" fill="#085770"/>
<path d="M85.7082 90.1969H62.7863V188H85.7082V90.1969Z" fill="#085770"/>
<path d="M123.506 101.894H100.584V188H123.506V101.894Z" fill="#085770"/>
<path d="M160.856 75.9524H137.934V188H160.856V75.9524Z" fill="#085770"/>
<path d="M12.0325 169.802C49.8396 177.645 43.1833 142.363 69.4335 127.315C88.177 116.577 103.382 119.544 122.464 127.315C138.492 133.834 161.359 125.452 173.812 110.066" stroke="white" stroke-width="4.3305" stroke-miterlimit="10" stroke-linecap="square"/>
<path d="M12.6725 171.381C50.4796 179.225 43.8233 143.943 70.0735 128.895C88.817 118.156 104.022 121.124 123.104 128.895C139.132 135.414 161.999 127.032 174.452 111.646" stroke="#003C50" stroke-width="4.3305" stroke-miterlimit="10" stroke-linecap="round"/>
<path d="M158.296 110.486C164.239 111.016 170.237 110.879 176.153 110.066C176.217 116.567 175.568 123.078 174.224 129.442" stroke="#003C50" stroke-width="4.3305" stroke-miterlimit="10" stroke-linecap="round" stroke-linejoin="round"/>
<path d="M166.251 26.9551L158.397 51.1525" stroke="white" stroke-width="3" stroke-miterlimit="10" stroke-linecap="round"/>
<path d="M160.875 30.2239C164.184 31.3561 167.586 32.0866 170.676 33.785C173.062 35.0907 174.278 40.1128 170.402 41.866C166.616 43.5735 161.816 41.5282 157.29 39.8663" stroke="white" stroke-width="3" stroke-miterlimit="10" stroke-linecap="round"/>
<path d="M153.853 49.4266C158.388 51.1524 162.712 52.9512 167.339 53.1247C168.994 53.1886 173.51 52.5312 173.51 48.13C173.51 44.9889 167.906 42.9344 165.51 42.4596" stroke="white" stroke-width="3" stroke-miterlimit="10" stroke-linecap="round"/>
<path d="M170.402 28.4067L169.396 31.3561" stroke="white" stroke-width="3" stroke-miterlimit="10" stroke-linecap="round"/>
<path d="M157.528 51.6545L156.541 54.6039" stroke="white" stroke-width="3" stroke-miterlimit="10" stroke-linecap="round"/>
<path d="M161.359 52.5768L160.225 55.7361" stroke="white" stroke-width="3" stroke-miterlimit="10" stroke-linecap="round"/>
<path d="M12.2336 71.0307L18.323 83.933L26.753 72.7839L21.322 58.9868L12.2336 71.0307Z" stroke="white" stroke-width="3" stroke-miterlimit="10" stroke-linecap="round" stroke-linejoin="round"/>
<path d="M13.285 71.3047L19.4841 74.811L25.7929 72.3274" stroke="white" stroke-width="3" stroke-miterlimit="10" stroke-linecap="round"/>
<path d="M69.8997 20.2618C72.6792 21.5402 75.541 22.435 78.5674 22.8824C80.4783 23.1655 81.3012 20.2527 79.372 19.9605C76.6199 19.5496 73.9593 18.81 71.4266 17.6412C69.6711 16.8377 68.135 19.4492 69.8997 20.2618Z" fill="#F6D77D"/>
<path d="M68.83 21.1112C72.0666 23.3848 75.6965 24.9188 79.5824 25.6767C81.4841 26.0419 82.307 23.1291 80.387 22.7548C76.7205 22.0425 73.4198 20.6363 70.3569 18.4997C68.7568 17.3765 67.239 20.0063 68.83 21.1112Z" fill="#F6D77D"/>
<path d="M68.0345 19.1022L79.1252 23.5491C81.7128 24.4165 84.5563 23.3756 85.9735 21.0471L91.0297 10.7747" stroke="white" stroke-width="3" stroke-miterlimit="10" stroke-linecap="round"/>
<path d="M76.0897 41.6469L82.0237 31.2831C83.514 29.0003 86.385 28.0507 88.945 28.9912L99.7157 34.205" stroke="white" stroke-width="3" stroke-miterlimit="10" stroke-linecap="round"/>
</g>
<defs>
<clipPath id="clip0">
<rect width="186" height="188" fill="white"/>
</clipPath>
</defs>
</svg>
