<svg width="196" height="130" viewBox="0 0 196 130" fill="none" xmlns="http://www.w3.org/2000/svg">
<g clip-path="url(#clip0)">
<path d="M195.627 9.9338L22.5106 2.15308L17.1599 121.204L190.277 128.985L195.627 9.9338Z" fill="#003C50"/>
<path d="M172.974 -0.00153068L-0.0045166 10.3785L7.13377 129.334L180.112 118.954L172.974 -0.00153068Z" fill="#F6D77D"/>
<path d="M172.31 104.85L14.1101 114.41L7.81006 18.7699L166.48 8.81995L172.31 104.85Z" stroke="white" stroke-width="3" stroke-miterlimit="10" stroke-linecap="round" stroke-linejoin="round"/>
<path d="M48.73 43.39C43.53 48.53 38.52 53.87 33.74 59.4C31.93 61.49 30.05 63.87 30.12 66.64C30.22 70.73 34.38 73.36 38.07 75.12C44.1 78 50.26 80.59 56.53 82.9" stroke="white" stroke-width="3" stroke-miterlimit="10" stroke-linecap="round" stroke-linejoin="round"/>
<path d="M130.61 37.14C134.08 39.73 140.31 44.85 143.52 47.69C146.22 50.08 148.99 52.78 149.78 56.29C150.85 61.02 148.02 65.78 144.63 69.25C141.24 72.72 138.17 76.64 134.55 79.7" stroke="white" stroke-width="3" stroke-miterlimit="10" stroke-linecap="round" stroke-linejoin="round"/>
<path d="M117.62 38.24L100.42 78.6" stroke="white" stroke-width="3" stroke-miterlimit="10" stroke-linecap="round" stroke-linejoin="round"/>
<path d="M67.58 78.88C69.3142 78.88 70.72 77.4741 70.72 75.74C70.72 74.0058 69.3142 72.6 67.58 72.6C65.8458 72.6 64.44 74.0058 64.44 75.74C64.44 77.4741 65.8458 78.88 67.58 78.88Z" fill="white"/>
<path d="M78.47 78.61C80.2042 78.61 81.61 77.2041 81.61 75.47C81.61 73.7358 80.2042 72.33 78.47 72.33C76.7358 72.33 75.33 73.7358 75.33 75.47C75.33 77.2041 76.7358 78.61 78.47 78.61Z" fill="white"/>
<path d="M89.51 78.33C91.2442 78.33 92.65 76.9242 92.65 75.19C92.65 73.4559 91.2442 72.05 89.51 72.05C87.7758 72.05 86.37 73.4559 86.37 75.19C86.37 76.9242 87.7758 78.33 89.51 78.33Z" fill="white"/>
<path d="M94.84 120C96.5742 120 97.98 118.594 97.98 116.86C97.98 115.126 96.5742 113.72 94.84 113.72C93.1058 113.72 91.7 115.126 91.7 116.86C91.7 118.594 93.1058 120 94.84 120Z" fill="white"/>
</g>
<defs>
<clipPath id="clip0">
<rect width="195.63" height="129.34" fill="white"/>
</clipPath>
</defs>
</svg>
