<svg width="246" height="187" viewBox="0 0 246 187" fill="none" xmlns="http://www.w3.org/2000/svg">
<g clip-path="url(#clip0)">
<path d="M139.72 54.89C142.81 62.58 147.27 69.62 150.88 77.08C155.79 87.2401 159.14 98.46 158.29 109.72C157.44 120.98 151.89 132.24 142.22 138.07C137.07 141.18 131.1 142.61 125.24 143.97C118.24 145.6 111.13 147.21 103.94 146.94C97.93 146.71 92.04 145.17 86.38 143.13C73.21 138.37 60.43 130.08 54.7 117.3C51.79 110.8 50.9 103.56 50.73 96.44C50.11 69.87 59.43 43.19 76.47 22.79C80.05 18.51 83.98 14.47 88.55 11.27C95.42 6.47004 89.69 1.70004 97.96 0.740042C103.97 0.040042 116 5.22004 120.84 11.58C134.94 30.11 134.08 40.87 139.72 54.89Z" fill="#003C50"/>
<path d="M122.94 32.51C124.3 57.68 127.91 80.98 115.09 92.03C97.72 107 72.07 102.61 62.78 82.04C41.12 34.09 98.55 -22.76 121.31 30.47" fill="white"/>
<path d="M55.07 21.39C48.46 30.75 48.27 42.26 35.25 52.51C22.29 62.72 19.74 67.58 9.77999 80.73C-4.08001 99.03 -2.71001 127.23 12.88 144.1C22.17 154.16 37.04 160.1 49.94 155.51C62.9 150.89 70.53 137.16 73.19 123.67C75.85 110.18 64.87 87.14 66.39 73.47C68.07 58.28 70.62 51.01 79.82 38.81C84 33.25 98.75 27.3 104.49 23.4C114.62 16.51 113.62 3 100.04 0.859998C75.19 -3.07 60.61 13.54 55.07 21.39Z" fill="#003C50"/>
<path d="M76.06 108.95C77.14 108.7 78.06 107.84 79.16 107.93C80.37 108.02 96 106.37 101.11 105.33C115.77 102.35 137.4 112.07 142.98 117.05C152.24 125.31 157.89 138.85 158.35 151.25C158.47 154.48 159.04 158.19 157.07 160.76C145.82 175.5 68.68 182.88 34.34 172.06C30.34 170.8 26.1 169.13 23.86 165.58C21.4 161.7 22.01 156.63 23.37 152.24C30.71 128.58 50.7 114.92 76.06 108.95Z" fill="#F6D77D"/>
<path d="M72.51 40.0401C74.6 42.2101 77.87 42.6101 80.87 42.8801C93.45 44.0401 106.61 45.1201 118.29 40.2901C122.32 38.6201 123.93 38.7301 126.48 35.1901C129.64 30.8101 123.44 29.0801 122.42 23.7801C121.4 18.4801 118.89 18.6801 115.32 14.6201C109.26 7.73006 101.83 12.4601 92.66 12.5601C83.49 12.6601 79.22 18.4401 76.55 27.2201" fill="#003C50"/>
<path d="M111.28 88.2999L109.1 113.7C107.1 116.64 101.54 119.49 98.58 120.2C94.32 121.23 89.04 121.35 84.86 120.04C79.48 118.35 74.27 115 73.07 110.79C72.6 109.16 73.03 80.0399 73.03 80.0399C73.03 80.0399 105.49 76.2599 111.07 81.5099C114.09 84.3499 111.86 83.0799 111.28 88.2999Z" fill="white"/>
<path d="M51.11 26.2499C47.57 31.4999 44.92 37.2999 41.45 42.5899C32.46 56.2899 18.32 66.0499 9.62 79.9299C3.27 90.0599 -1.04 104.09 0.219998 115.99C1.48 127.89 7.29 139.35 16.55 146.92C6.49 130.42 2.65 112.89 9.52 92.9699C11.88 86.1199 16.95 80.6699 19.69 77.0999C24.98 70.2099 32.47 63.8499 38.37 57.4699C46.32 48.8699 48.14 39.3299 54.14 29.2799C65.25 10.6499 71.4 0.569892 103.52 1.49989C74.16 -4.95011 61.71 10.5299 51.11 26.2499Z" fill="#085770"/>
<path d="M116.38 7.34009C116.38 7.34009 130.15 23.4001 125.51 36.3801C124.19 38.4801 122.26 38.6701 123.28 38.2501C128.48 23.7501 116.38 7.34009 116.38 7.34009Z" fill="#085770"/>
<path d="M59.37 22.9699C57.55 31.3399 57.86 40.0099 58.39 48.5499C58.48 49.9399 58.59 51.4099 59.39 52.5499C60.18 53.6999 61.9 54.3299 63.01 53.4899C62.48 44.3199 62.03 35.0799 63.43 25.9999C64.17 21.2199 65.44 16.4899 67.41 12.0599C69.27 7.86994 72.29 4.70994 74.54 0.869938C71.22 0.849938 67.63 5.45994 65.9 7.84994C62.64 12.3299 60.54 17.5899 59.37 22.9699Z" fill="white"/>
<path d="M66.25 71.58C68.88 81.52 75.51 90.33 84.33 95.61" stroke="#003C50" stroke-width="2.748" stroke-miterlimit="10" stroke-linecap="round"/>
<path d="M65.5964 77.0765C71.6577 75.989 75.4455 68.832 74.0566 61.0909C72.6677 53.3499 66.6282 47.9561 60.5669 49.0436C54.5056 50.1311 50.7178 57.2881 52.1067 65.0291C53.4956 72.7702 59.5351 78.164 65.5964 77.0765Z" fill="#F6D77D"/>
<path d="M64.3502 71.248C67.65 70.656 69.7122 66.7608 68.9563 62.5478C68.2004 58.3347 64.9127 55.3994 61.6129 55.9914C58.3132 56.5834 56.251 60.4787 57.0069 64.6917C57.7628 68.9047 61.0505 71.8401 64.3502 71.248Z" fill="white"/>
<path d="M84.48 99.2499L81.07 97.2199C79.63 96.3599 79.15 94.4799 80 93.0399C80.86 91.5999 82.74 91.1199 84.18 91.9699L87.6 93.9999C89.04 94.8599 89.52 96.7399 88.67 98.1799C87.81 99.6299 85.93 100.11 84.48 99.2499Z" fill="#F6D77D"/>
<path d="M245.55 14.6999L167.63 13.3799L168.55 68.9499C168.55 68.9499 176.48 58.4799 176.64 58.1999L242.14 59.8299L245.55 14.6999Z" fill="#F6D77D"/>
<path d="M194.55 68.95L183.22 103.7L192.64 98.09L232.05 110.16L241.39 82.66L194.55 68.95Z" fill="#F6D77D"/>
<path d="M177.28 29.1699L235.53 30.1599" stroke="white" stroke-width="3" stroke-miterlimit="10" stroke-linecap="round"/>
<path d="M177.81 40.79L225.86 41.67" stroke="white" stroke-width="3" stroke-miterlimit="10" stroke-linecap="round"/>
<path d="M200.61 80.05L229.53 88.3" stroke="white" stroke-width="3" stroke-miterlimit="10" stroke-linecap="round"/>
<path d="M198.07 88.04L226.23 96.55" stroke="white" stroke-width="3" stroke-miterlimit="10" stroke-linecap="round"/>
<path d="M140.77 151.25L145.83 172.85" stroke="white" stroke-width="3" stroke-miterlimit="10" stroke-linecap="round"/>
<path d="M57.72 148.03C58 139.97 58.15 132.6 55.75 125.41C54.39 121.34 51.08 117.44 49.31 113.24C48.82 112.08 48.02 110.73 46.6 111.08C45.62 111.33 44.95 112.25 44.84 113.26C44.36 118.02 45.43 120.79 46.72 124.21C38.97 124.74 27.7 120.39 19.82 114.77C19.03 114.21 17.99 114.98 18.27 115.91C18.97 118.25 20.48 120.36 22.52 121.71C20.36 120.43 18.21 119.15 16.05 117.87C15.48 117.53 14.82 117.18 14.19 117.38C13.22 117.69 13.08 119 13.2 120.01C14.11 127.3 18.05 132.95 24.12 137.08C30.19 141.21 37.42 140.4 43.87 143.91C47.17 145.7 51.86 151.75 55.53 150.82C56.8 150.49 57.68 149.33 57.72 148.03Z" fill="white"/>
<path d="M60.73 144.39L58.42 138.41L31.88 144.74C31.88 144.74 32.52 148.19 32.94 149.91C34.64 156.87 35.51 162.93 37.21 169.89C37.63 171.6 38.07 173.36 39.16 174.78C41.34 177.62 45.37 178.94 49.05 179.55C60.61 181.49 70.53 178.3 70.53 178.3C69.09 169.88 60.73 144.39 60.73 144.39Z" fill="#F6D77D"/>
<path d="M58.63 138.95L71.17 180.34" stroke="white" stroke-width="3" stroke-miterlimit="10" stroke-linecap="round"/>
<path d="M32.94 145.93L41.89 185.33" stroke="white" stroke-width="3" stroke-miterlimit="10" stroke-linecap="round"/>
</g>
<defs>
<clipPath id="clip0">
<rect width="245.55" height="186.83" fill="white"/>
</clipPath>
</defs>
</svg>
