<svg width="40" height="40" viewBox="0 0 40 40" fill="none" xmlns="http://www.w3.org/2000/svg">
<path d="M24.9883 22.125H21.7656V31.75H17.4688V22.125H13.9883V18.1289H17.4688V15.1211C17.4688 13.9753 17.6836 13.0013 18.1133 12.1992C18.543 11.3971 19.1445 10.7956 19.918 10.3945C20.7201 9.96484 21.6367 9.75 22.668 9.75C23.1263 9.75 23.6133 9.77865 24.1289 9.83594C24.6445 9.86458 25.0456 9.90755 25.332 9.96484L25.7617 10.0078V13.4023H24.043C23.2409 13.4023 22.6536 13.6172 22.2812 14.0469C21.9375 14.4479 21.7656 14.9492 21.7656 15.5508V18.1289H25.5898L24.9883 22.125Z" fill="white"/>
<rect x="0.5" y="0.5" width="39" height="39" rx="19.5" stroke="white"/>
</svg>
