<svg width="40" height="40" viewBox="0 0 40 40" fill="none" xmlns="http://www.w3.org/2000/svg">
<path d="M16.5156 27H13.2461V16.4883H16.5156V27ZM14.8984 15.0469C14.3828 15.0469 13.9375 14.8594 13.5625 14.4844C13.1875 14.1094 13 13.6641 13 13.1484C13 12.6328 13.1875 12.1875 13.5625 11.8125C13.9375 11.4375 14.3828 11.25 14.8984 11.25C15.4141 11.25 15.8594 11.4375 16.2344 11.8125C16.6094 12.1875 16.7969 12.6328 16.7969 13.1484C16.7969 13.6641 16.6094 14.1094 16.2344 14.4844C15.8594 14.8594 15.4141 15.0469 14.8984 15.0469ZM28.75 27H25.4805V21.8672C25.4805 21.0234 25.4102 20.4141 25.2695 20.0391C25.0117 19.4062 24.5078 19.0898 23.7578 19.0898C23.0078 19.0898 22.4805 19.3711 22.1758 19.9336C21.9414 20.3555 21.8242 20.9766 21.8242 21.7969V27H18.5898V16.4883H21.7188V17.9297H21.7539C21.9883 17.4609 22.3633 17.0742 22.8789 16.7695C23.4414 16.3945 24.0977 16.207 24.8477 16.207C26.3711 16.207 27.4375 16.6875 28.0469 17.6484C28.5156 18.4219 28.75 19.6172 28.75 21.2344V27Z" fill="white"/>
<rect x="0.5" y="0.5" width="39" height="39" rx="19.5" stroke="white"/>
</svg>
