<svg width="40" height="40" viewBox="0 0 40 40" fill="none" xmlns="http://www.w3.org/2000/svg">
<path d="M15.2969 28H11.3008V15.1523H15.2969V28ZM13.3203 13.3906C12.6901 13.3906 12.1458 13.1615 11.6875 12.7031C11.2292 12.2448 11 11.7005 11 11.0703C11 10.4401 11.2292 9.89583 11.6875 9.4375C12.1458 8.97917 12.6901 8.75 13.3203 8.75C13.7214 8.75 14.0938 8.85026 14.4375 9.05078C14.8099 9.2513 15.0964 9.53776 15.2969 9.91016C15.526 10.2539 15.6406 10.6406 15.6406 11.0703C15.6406 11.4714 15.526 11.8581 15.2969 12.2305C15.0964 12.5742 14.8099 12.8607 14.4375 13.0898C14.0938 13.2904 13.7214 13.3906 13.3203 13.3906ZM30.25 28H26.2539V21.7266C26.2539 21.2396 26.2396 20.8529 26.2109 20.5664C26.1823 20.2513 26.1107 19.9076 25.9961 19.5352C25.8815 19.1341 25.6667 18.8333 25.3516 18.6328C25.0651 18.4323 24.6784 18.332 24.1914 18.332C23.2461 18.332 22.6016 18.6328 22.2578 19.2344C21.9427 19.8359 21.7852 20.638 21.7852 21.6406V28H17.7891V15.1523H21.6562V16.9141H21.6992C21.9857 16.3411 22.4583 15.8542 23.1172 15.4531C23.776 15.0234 24.5638 14.8086 25.4805 14.8086C26.4544 14.8086 27.2565 14.9661 27.8867 15.2812C28.5456 15.5677 29.0326 16.0117 29.3477 16.6133C29.6914 17.1862 29.9206 17.8164 30.0352 18.5039C30.1784 19.1914 30.25 20.0078 30.25 20.9531V28Z" fill="white"/>
<rect x="0.5" y="0.5" width="39" height="39" rx="19.5" stroke="white"/>
</svg>
