<svg width="40" height="40" viewBox="0 0 40 40" fill="none" xmlns="http://www.w3.org/2000/svg">
<rect x="0.5" y="0.5" width="39" height="39" rx="19.5" stroke="white"/>
<path d="M27.1367 16.5938C27.1602 16.6875 27.1719 16.8398 27.1719 17.0508C27.1719 18.7383 26.7617 20.3672 25.9414 21.9375C25.0977 23.6016 23.9141 24.9258 22.3906 25.9102C20.7266 27.0117 18.8164 27.5625 16.6602 27.5625C14.5977 27.5625 12.7109 27.0117 11 25.9102C11.2578 25.9336 11.5508 25.9453 11.8789 25.9453C13.5898 25.9453 15.125 25.418 16.4844 24.3633C15.6641 24.3633 14.9375 24.1289 14.3047 23.6602C13.6953 23.168 13.2734 22.5586 13.0391 21.832C13.2734 21.8555 13.4961 21.8672 13.707 21.8672C14.0352 21.8672 14.3633 21.832 14.6914 21.7617C13.8477 21.5742 13.1445 21.1406 12.582 20.4609C12.0195 19.7812 11.7383 19.0078 11.7383 18.1406V18.0703C12.2539 18.375 12.8047 18.5391 13.3906 18.5625C12.8984 18.2109 12.5 17.7656 12.1953 17.2266C11.8906 16.6875 11.7383 16.1016 11.7383 15.4688C11.7383 14.8125 11.9141 14.1914 12.2656 13.6055C13.1797 14.7539 14.293 15.668 15.6055 16.3477C16.9414 17.0273 18.3594 17.4023 19.8594 17.4727C19.8125 17.1914 19.7891 16.9102 19.7891 16.6289C19.7891 15.9727 19.9531 15.3633 20.2812 14.8008C20.6094 14.2148 21.0547 13.7578 21.6172 13.4297C22.1797 13.1016 22.7891 12.9375 23.4453 12.9375C23.9844 12.9375 24.4766 13.043 24.9219 13.2539C25.3906 13.4648 25.8008 13.7461 26.1523 14.0977C26.9961 13.9336 27.7812 13.6406 28.5078 13.2188C28.2266 14.0859 27.6875 14.7656 26.8906 15.2578C27.5938 15.1641 28.2969 14.9648 29 14.6602C28.4844 15.4102 27.8633 16.0547 27.1367 16.5938Z" fill="white"/>
</svg>
