<svg width="40" height="40" viewBox="0 0 40 40" fill="none" xmlns="http://www.w3.org/2000/svg">
<rect x="0.5" y="0.5" width="39" height="39" rx="19.5" stroke="white"/>
<path d="M29.7227 16.2812C29.7513 16.3958 29.7656 16.582 29.7656 16.8398C29.7656 18.3581 29.4792 19.8763 28.9062 21.3945C28.3333 22.8841 27.5169 24.2591 26.457 25.5195C25.4258 26.7513 24.0794 27.7539 22.418 28.5273C20.7565 29.3008 18.9232 29.6875 16.918 29.6875C14.3971 29.6875 12.0911 29.0143 10 27.668C10.3151 27.6966 10.6732 27.7109 11.0742 27.7109C13.1654 27.7109 15.0417 27.0664 16.7031 25.7773C15.7005 25.7773 14.8125 25.4909 14.0391 24.918C13.2943 24.3164 12.7786 23.5716 12.4922 22.6836C12.7786 22.7122 13.0508 22.7266 13.3086 22.7266C13.7096 22.7266 14.1107 22.6836 14.5117 22.5977C13.8242 22.4544 13.2083 22.168 12.6641 21.7383C12.1198 21.3086 11.6901 20.793 11.375 20.1914C11.0599 19.5612 10.9023 18.888 10.9023 18.1719V18.0859C11.5326 18.4583 12.2057 18.6589 12.9219 18.6875C11.5755 17.7708 10.9023 16.5104 10.9023 14.9062C10.9023 14.1042 11.1172 13.3451 11.5469 12.6289C12.6641 14.0326 14.0247 15.1497 15.6289 15.9805C17.2617 16.8112 18.9948 17.2695 20.8281 17.3555C20.7708 17.0117 20.7422 16.668 20.7422 16.3242C20.7422 15.0924 21.1719 14.0326 22.0312 13.1445C22.9193 12.2565 23.9792 11.8125 25.2109 11.8125C26.5286 11.8125 27.6315 12.2852 28.5195 13.2305C29.5508 13.0299 30.5104 12.6719 31.3984 12.1562C31.0547 13.2161 30.3958 14.0469 29.4219 14.6484C30.2812 14.5339 31.1406 14.2904 32 13.918C31.3698 14.8346 30.6107 15.6224 29.7227 16.2812Z" fill="white"/>
</svg>
